<?xml version="1.0" encoding="UTF-8"?>
<svg id="Layer_1" data-name="Layer 1" xmlns="http://www.w3.org/2000/svg" width="10.62in" height="11.46in" viewBox="0 0 764.75 824.98">
  <defs>
    <style>
      .cls-1 {
        fill: #fff;
        stroke-miterlimit: 10;
      }

      .cls-1, .cls-2 {
        stroke: #000;
        stroke-width: .1px;
      }

      .cls-2 {
        fill: none;
        stroke-miterlimit: 4;
      }
    </style>
  </defs>
  <path class="cls-1" d="M537.65.05h-108.02v414.08h108.02c99.43,0,180.03-92.7,180.03-207.04S637.08.05,537.65.05Z"/>
  <path class="cls-1" d="M656.68,408.13h108.02v414.08h-108.02c-99.43,0-180.03-92.7-180.03-207.04s80.61-207.04,180.03-207.04Z"/>
  <rect class="cls-1" x=".05" y=".05" width="398.08" height="824.88"/>
  <circle class="cls-1" cx="199.09" cy="108.07" r="25.2"/>
  <circle class="cls-1" cx="199.09" cy="716.91" r="25.2"/>
  <circle class="cls-2" cx="385.36" cy="21.27" r="1.98"/>
  <circle class="cls-2" cx="385.36" cy="35.43" r="1.98"/>
  <circle class="cls-2" cx="385.36" cy="49.58" r="1.98"/>
  <circle class="cls-2" cx="385.36" cy="63.72" r="1.98"/>
  <circle class="cls-2" cx="385.36" cy="77.87" r="1.98"/>
  <circle class="cls-2" cx="385.36" cy="92.03" r="1.98"/>
  <circle class="cls-2" cx="385.36" cy="106.18" r="1.98"/>
  <circle class="cls-2" cx="385.36" cy="120.32" r="1.98"/>
  <circle class="cls-2" cx="385.36" cy="134.48" r="1.98"/>
  <circle class="cls-2" cx="385.36" cy="148.63" r="1.98"/>
  <circle class="cls-2" cx="385.36" cy="162.78" r="1.98"/>
  <circle class="cls-2" cx="385.36" cy="176.92" r="1.98"/>
  <circle class="cls-2" cx="385.36" cy="191.08" r="1.98"/>
  <circle class="cls-2" cx="385.36" cy="205.22" r="1.98"/>
  <circle class="cls-2" cx="385.36" cy="219.36" r="1.98"/>
  <circle class="cls-2" cx="385.36" cy="233.49" r="1.98"/>
  <circle class="cls-2" cx="385.36" cy="247.6" r="1.98"/>
  <circle class="cls-2" cx="385.36" cy="261.67" r="1.98"/>
  <circle class="cls-2" cx="385.36" cy="275.67" r="1.98"/>
  <circle class="cls-2" cx="385.36" cy="289.55" r="1.98"/>
  <circle class="cls-2" cx="385.36" cy="303.28" r="1.98"/>
  <circle class="cls-2" cx="385.36" cy="316.76" r="1.98"/>
  <circle class="cls-2" cx="385.36" cy="329.93" r="1.98"/>
  <circle class="cls-2" cx="385.36" cy="342.75" r="1.98"/>
  <circle class="cls-2" cx="385.36" cy="355.18" r="1.98"/>
  <circle class="cls-2" cx="385.36" cy="367.22" r="1.98"/>
  <circle class="cls-2" cx="385.36" cy="378.89" r="1.98"/>
  <circle class="cls-2" cx="385.36" cy="390.26" r="1.98"/>
  <circle class="cls-2" cx="385.36" cy="401.44" r="1.98"/>
  <circle class="cls-2" cx="385.36" cy="412.49" r="1.98"/>
  <circle class="cls-2" cx="385.36" cy="423.54" r="1.98"/>
  <circle class="cls-2" cx="385.36" cy="434.71" r="1.98"/>
  <circle class="cls-2" cx="385.36" cy="446.08" r="1.98"/>
  <circle class="cls-2" cx="385.36" cy="457.76" r="1.98"/>
  <circle class="cls-2" cx="385.36" cy="469.8" r="1.98"/>
  <circle class="cls-2" cx="385.36" cy="482.22" r="1.98"/>
  <circle class="cls-2" cx="385.36" cy="495.04" r="1.98"/>
  <circle class="cls-2" cx="385.36" cy="508.23" r="1.98"/>
  <circle class="cls-2" cx="385.36" cy="521.7" r="1.98"/>
  <circle class="cls-2" cx="385.36" cy="535.42" r="1.98"/>
  <circle class="cls-2" cx="385.36" cy="549.3" r="1.98"/>
  <circle class="cls-2" cx="385.36" cy="563.31" r="1.98"/>
  <circle class="cls-2" cx="385.36" cy="577.38" r="1.98"/>
  <circle class="cls-2" cx="385.36" cy="591.48" r="1.98"/>
  <circle class="cls-2" cx="385.36" cy="605.61" r="1.98"/>
  <circle class="cls-2" cx="385.36" cy="619.76" r="1.98"/>
  <circle class="cls-2" cx="385.36" cy="633.9" r="1.98"/>
  <circle class="cls-2" cx="385.36" cy="648.05" r="1.98"/>
  <circle class="cls-2" cx="385.36" cy="662.2" r="1.98"/>
  <circle class="cls-2" cx="385.36" cy="676.35" r="1.98"/>
  <circle class="cls-2" cx="385.36" cy="690.5" r="1.98"/>
  <circle class="cls-2" cx="385.36" cy="704.65" r="1.98"/>
  <circle class="cls-2" cx="385.36" cy="718.81" r="1.98"/>
  <circle class="cls-2" cx="385.36" cy="732.95" r="1.98"/>
  <circle class="cls-2" cx="385.36" cy="747.1" r="1.98"/>
  <circle class="cls-2" cx="385.36" cy="761.25" r="1.98"/>
  <circle class="cls-2" cx="385.36" cy="775.41" r="1.98"/>
  <circle class="cls-2" cx="385.36" cy="789.55" r="1.98"/>
  <circle class="cls-2" cx="385.36" cy="803.7" r="1.98"/>
  <circle class="cls-2" cx="12.81" cy="21.27" r="1.98"/>
  <circle class="cls-2" cx="12.81" cy="35.43" r="1.98"/>
  <circle class="cls-2" cx="12.81" cy="49.58" r="1.98"/>
  <circle class="cls-2" cx="12.81" cy="63.72" r="1.98"/>
  <circle class="cls-2" cx="12.81" cy="77.87" r="1.98"/>
  <circle class="cls-2" cx="12.81" cy="92.03" r="1.98"/>
  <circle class="cls-2" cx="12.81" cy="106.18" r="1.98"/>
  <circle class="cls-2" cx="12.81" cy="120.32" r="1.98"/>
  <circle class="cls-2" cx="12.81" cy="134.48" r="1.98"/>
  <circle class="cls-2" cx="12.81" cy="148.63" r="1.98"/>
  <circle class="cls-2" cx="12.81" cy="162.78" r="1.98"/>
  <circle class="cls-2" cx="12.81" cy="176.92" r="1.98"/>
  <circle class="cls-2" cx="12.81" cy="191.08" r="1.98"/>
  <circle class="cls-2" cx="12.81" cy="205.22" r="1.98"/>
  <circle class="cls-2" cx="12.81" cy="219.36" r="1.98"/>
  <circle class="cls-2" cx="12.81" cy="233.49" r="1.98"/>
  <circle class="cls-2" cx="12.81" cy="247.6" r="1.98"/>
  <circle class="cls-2" cx="12.81" cy="261.67" r="1.98"/>
  <circle class="cls-2" cx="12.81" cy="275.67" r="1.98"/>
  <circle class="cls-2" cx="12.81" cy="289.55" r="1.98"/>
  <circle class="cls-2" cx="12.81" cy="303.28" r="1.98"/>
  <circle class="cls-2" cx="12.81" cy="316.76" r="1.98"/>
  <circle class="cls-2" cx="12.81" cy="329.93" r="1.98"/>
  <circle class="cls-2" cx="12.81" cy="342.75" r="1.98"/>
  <circle class="cls-2" cx="12.81" cy="355.18" r="1.98"/>
  <circle class="cls-2" cx="12.81" cy="367.22" r="1.98"/>
  <circle class="cls-2" cx="12.81" cy="378.89" r="1.98"/>
  <circle class="cls-2" cx="12.81" cy="390.26" r="1.98"/>
  <circle class="cls-2" cx="12.81" cy="401.44" r="1.98"/>
  <circle class="cls-2" cx="12.81" cy="412.49" r="1.98"/>
  <circle class="cls-2" cx="12.81" cy="423.54" r="1.98"/>
  <circle class="cls-2" cx="12.81" cy="434.71" r="1.98"/>
  <circle class="cls-2" cx="12.81" cy="446.08" r="1.98"/>
  <circle class="cls-2" cx="12.81" cy="457.76" r="1.98"/>
  <circle class="cls-2" cx="12.81" cy="469.8" r="1.98"/>
  <circle class="cls-2" cx="12.81" cy="482.22" r="1.98"/>
  <circle class="cls-2" cx="12.81" cy="495.04" r="1.98"/>
  <circle class="cls-2" cx="12.81" cy="508.23" r="1.98"/>
  <circle class="cls-2" cx="12.81" cy="521.7" r="1.98"/>
  <circle class="cls-2" cx="12.81" cy="535.42" r="1.98"/>
  <circle class="cls-2" cx="12.81" cy="549.3" r="1.98"/>
  <circle class="cls-2" cx="12.81" cy="563.31" r="1.98"/>
  <circle class="cls-2" cx="12.81" cy="577.38" r="1.98"/>
  <circle class="cls-2" cx="12.81" cy="591.48" r="1.98"/>
  <circle class="cls-2" cx="12.81" cy="605.61" r="1.98"/>
  <circle class="cls-2" cx="12.81" cy="619.76" r="1.98"/>
  <circle class="cls-2" cx="12.81" cy="633.9" r="1.98"/>
  <circle class="cls-2" cx="12.81" cy="648.05" r="1.98"/>
  <circle class="cls-2" cx="12.81" cy="662.2" r="1.98"/>
  <circle class="cls-2" cx="12.81" cy="676.35" r="1.98"/>
  <circle class="cls-2" cx="12.81" cy="690.5" r="1.98"/>
  <circle class="cls-2" cx="12.81" cy="704.65" r="1.98"/>
  <circle class="cls-2" cx="12.81" cy="718.81" r="1.98"/>
  <circle class="cls-2" cx="12.81" cy="732.95" r="1.98"/>
  <circle class="cls-2" cx="12.81" cy="747.1" r="1.98"/>
  <circle class="cls-2" cx="12.81" cy="761.25" r="1.98"/>
  <circle class="cls-2" cx="12.81" cy="775.41" r="1.98"/>
  <circle class="cls-2" cx="12.81" cy="789.55" r="1.98"/>
  <circle class="cls-2" cx="12.81" cy="803.7" r="1.98"/>
  <circle class="cls-2" cx="450.86" cy="12.81" r="1.98"/>
  <circle class="cls-2" cx="465.01" cy="12.81" r="1.98"/>
  <circle class="cls-2" cx="479.16" cy="12.81" r="1.98"/>
  <circle class="cls-2" cx="493.3" cy="12.81" r="1.98"/>
  <circle class="cls-2" cx="507.46" cy="12.81" r="1.98"/>
  <circle class="cls-2" cx="521.61" cy="12.81" r="1.98"/>
  <circle class="cls-2" cx="535.76" cy="12.81" r="1.98"/>
  <circle class="cls-2" cx="548.91" cy="13.24" r="1.98"/>
  <circle class="cls-2" cx="561.82" cy="14.82" r="1.98"/>
  <circle class="cls-2" cx="574.54" cy="17.55" r="1.98"/>
  <circle class="cls-2" cx="586.97" cy="21.4" r="1.98"/>
  <circle class="cls-2" cx="599.05" cy="26.32" r="1.98"/>
  <circle class="cls-2" cx="610.7" cy="32.29" r="1.98"/>
  <circle class="cls-2" cx="621.83" cy="39.2" r="1.98"/>
  <circle class="cls-2" cx="632.39" cy="46.99" r="1.98"/>
  <circle class="cls-2" cx="642.34" cy="55.6" r="1.98"/>
  <circle class="cls-2" cx="651.62" cy="64.93" r="1.98"/>
  <circle class="cls-2" cx="660.2" cy="74.9" r="1.98"/>
  <circle class="cls-2" cx="668.04" cy="85.43" r="1.98"/>
  <circle class="cls-2" cx="675.1" cy="96.39" r="1.98"/>
  <circle class="cls-2" cx="681.37" cy="107.66" r="1.98"/>
  <circle class="cls-2" cx="686.82" cy="119.11" r="1.98"/>
  <circle class="cls-2" cx="691.46" cy="130.63" r="1.98"/>
  <circle class="cls-2" cx="695.33" cy="142.09" r="1.98"/>
  <circle class="cls-2" cx="698.45" cy="153.4" r="1.98"/>
  <circle class="cls-2" cx="700.89" cy="164.5" r="1.98"/>
  <circle class="cls-2" cx="702.71" cy="175.38" r="1.98"/>
  <circle class="cls-2" cx="703.96" cy="186.08" r="1.98"/>
  <circle class="cls-2" cx="704.69" cy="196.62" r="1.98"/>
  <circle class="cls-2" cx="704.92" cy="207.09" r="1.98"/>
  <circle class="cls-2" cx="704.69" cy="217.56" r="1.98"/>
  <circle class="cls-2" cx="703.96" cy="228.1" r="1.98"/>
  <circle class="cls-2" cx="702.71" cy="238.8" r="1.98"/>
  <circle class="cls-2" cx="700.89" cy="249.68" r="1.98"/>
  <circle class="cls-2" cx="698.45" cy="260.78" r="1.98"/>
  <circle class="cls-2" cx="695.33" cy="272.09" r="1.98"/>
  <circle class="cls-2" cx="691.46" cy="283.54" r="1.98"/>
  <circle class="cls-2" cx="686.82" cy="295.07" r="1.98"/>
  <circle class="cls-2" cx="681.37" cy="306.52" r="1.98"/>
  <circle class="cls-2" cx="675.1" cy="317.79" r="1.98"/>
  <circle class="cls-2" cx="668.04" cy="328.75" r="1.98"/>
  <circle class="cls-2" cx="660.2" cy="339.27" r="1.98"/>
  <circle class="cls-2" cx="651.62" cy="349.25" r="1.98"/>
  <circle class="cls-2" cx="642.34" cy="358.58" r="1.98"/>
  <circle class="cls-2" cx="632.39" cy="367.19" r="1.98"/>
  <circle class="cls-2" cx="621.83" cy="374.98" r="1.98"/>
  <circle class="cls-2" cx="610.7" cy="381.89" r="1.98"/>
  <circle class="cls-2" cx="599.05" cy="387.85" r="1.98"/>
  <circle class="cls-2" cx="586.97" cy="392.77" r="1.98"/>
  <circle class="cls-2" cx="574.54" cy="396.62" r="1.98"/>
  <circle class="cls-2" cx="561.82" cy="399.36" r="1.98"/>
  <circle class="cls-2" cx="548.91" cy="400.94" r="1.98"/>
  <circle class="cls-2" cx="535.76" cy="401.37" r="1.98"/>
  <circle class="cls-2" cx="521.61" cy="401.37" r="1.98"/>
  <circle class="cls-2" cx="507.46" cy="401.37" r="1.98"/>
  <circle class="cls-2" cx="493.3" cy="401.37" r="1.98"/>
  <circle class="cls-2" cx="479.16" cy="401.37" r="1.98"/>
  <circle class="cls-2" cx="465.01" cy="401.37" r="1.98"/>
  <circle class="cls-2" cx="450.86" cy="401.37" r="1.98"/>
  <circle class="cls-2" cx="743.48" cy="809.44" r="1.98"/>
  <circle class="cls-2" cx="729.32" cy="809.44" r="1.98"/>
  <circle class="cls-2" cx="715.17" cy="809.44" r="1.98"/>
  <circle class="cls-2" cx="701.03" cy="809.44" r="1.98"/>
  <circle class="cls-2" cx="686.88" cy="809.44" r="1.98"/>
  <circle class="cls-2" cx="672.72" cy="809.44" r="1.98"/>
  <circle class="cls-2" cx="658.57" cy="809.44" r="1.98"/>
  <circle class="cls-2" cx="645.42" cy="809.01" r="1.98"/>
  <circle class="cls-2" cx="632.51" cy="807.43" r="1.98"/>
  <circle class="cls-2" cx="619.79" cy="804.7" r="1.98"/>
  <circle class="cls-2" cx="607.36" cy="800.85" r="1.98"/>
  <circle class="cls-2" cx="595.28" cy="795.93" r="1.98"/>
  <circle class="cls-2" cx="583.64" cy="789.97" r="1.98"/>
  <circle class="cls-2" cx="572.5" cy="783.06" r="1.98"/>
  <circle class="cls-2" cx="561.94" cy="775.27" r="1.98"/>
  <circle class="cls-2" cx="551.99" cy="766.66" r="1.98"/>
  <circle class="cls-2" cx="542.71" cy="757.32" r="1.98"/>
  <circle class="cls-2" cx="534.13" cy="747.35" r="1.98"/>
  <circle class="cls-2" cx="526.29" cy="736.83" r="1.98"/>
  <circle class="cls-2" cx="519.23" cy="725.87" r="1.98"/>
  <circle class="cls-2" cx="512.96" cy="714.6" r="1.98"/>
  <circle class="cls-2" cx="507.51" cy="703.14" r="1.98"/>
  <circle class="cls-2" cx="502.87" cy="691.62" r="1.98"/>
  <circle class="cls-2" cx="499" cy="680.17" r="1.98"/>
  <circle class="cls-2" cx="495.88" cy="668.86" r="1.98"/>
  <circle class="cls-2" cx="493.44" cy="657.76" r="1.98"/>
  <circle class="cls-2" cx="491.62" cy="646.87" r="1.98"/>
  <circle class="cls-2" cx="490.37" cy="636.18" r="1.98"/>
  <circle class="cls-2" cx="489.64" cy="625.64" r="1.98"/>
  <circle class="cls-2" cx="489.41" cy="615.17" r="1.98"/>
  <circle class="cls-2" cx="489.64" cy="604.7" r="1.98"/>
  <circle class="cls-2" cx="490.37" cy="594.15" r="1.98"/>
  <circle class="cls-2" cx="491.62" cy="583.46" r="1.98"/>
  <circle class="cls-2" cx="493.44" cy="572.58" r="1.98"/>
  <circle class="cls-2" cx="495.88" cy="561.48" r="1.98"/>
  <circle class="cls-2" cx="499" cy="550.17" r="1.98"/>
  <circle class="cls-2" cx="502.87" cy="538.71" r="1.98"/>
  <circle class="cls-2" cx="507.51" cy="527.19" r="1.98"/>
  <circle class="cls-2" cx="512.96" cy="515.74" r="1.98"/>
  <circle class="cls-2" cx="519.23" cy="504.47" r="1.98"/>
  <path class="cls-2" d="M526.29,491.52c1.09,0,1.98.89,1.98,1.98s-.89,1.98-1.98,1.98-1.98-.89-1.98-1.98.89-1.98,1.98-1.98Z"/>
  <circle class="cls-2" cx="534.13" cy="482.98" r="1.98"/>
  <circle class="cls-2" cx="542.71" cy="473.01" r="1.98"/>
  <circle class="cls-2" cx="551.99" cy="463.68" r="1.98"/>
  <circle class="cls-2" cx="561.94" cy="455.07" r="1.98"/>
  <circle class="cls-2" cx="572.5" cy="447.28" r="1.98"/>
  <circle class="cls-2" cx="583.64" cy="440.36" r="1.98"/>
  <circle class="cls-2" cx="595.28" cy="434.4" r="1.98"/>
  <circle class="cls-2" cx="607.36" cy="429.48" r="1.98"/>
  <circle class="cls-2" cx="619.79" cy="425.63" r="1.98"/>
  <circle class="cls-2" cx="632.51" cy="422.9" r="1.98"/>
  <circle class="cls-2" cx="645.42" cy="421.32" r="1.98"/>
  <circle class="cls-2" cx="658.57" cy="420.89" r="1.98"/>
  <circle class="cls-2" cx="672.72" cy="420.89" r="1.98"/>
  <circle class="cls-2" cx="686.88" cy="420.89" r="1.98"/>
  <circle class="cls-2" cx="701.03" cy="420.89" r="1.98"/>
  <circle class="cls-2" cx="715.17" cy="420.89" r="1.98"/>
  <circle class="cls-2" cx="729.32" cy="420.89" r="1.98"/>
  <circle class="cls-2" cx="743.48" cy="420.89" r="1.98"/>
</svg>